<svg xmlns="http://www.w3.org/2000/svg" xmlns:xlink="http://www.w3.org/1999/xlink" width="264" height="31"><defs><path id="a" d="M16.047 30.94h-1.122a2.607 2.607 0 01-1.592-1.058l-1.413-2.007a2.636 2.636 0 00-2.622-1.076l-2.415.436a2.634 2.634 0 01-3.063-3.043l.421-2.418a2.634 2.634 0 00-1.093-2.614l-2.016-1.4A2.606 2.606 0 01.06 16.158v-1.122a2.607 2.607 0 011.058-1.593l2.007-1.413a2.633 2.633 0 001.076-2.621l-.436-2.415a2.634 2.634 0 013.042-3.063l2.419.42c1.01.176 2.03-.25 2.614-1.092l1.4-2.017A2.616 2.616 0 0115.366.111h.075c.802.011 1.6.383 2.116 1.117l1.412 2.008a2.635 2.635 0 002.622 1.075l2.415-.435a2.634 2.634 0 013.063 3.042l-.421 2.419a2.635 2.635 0 001.093 2.614l2.017 1.4a2.633 2.633 0 01.013 4.316l-2.007 1.413a2.636 2.636 0 00-1.076 2.621l.436 2.416a2.633 2.633 0 01-3.042 3.062l-2.419-.42a2.635 2.635 0 00-2.614 1.093l-1.4 2.016a2.606 2.606 0 01-1.602 1.072z"/></defs><g fill="none" fill-rule="evenodd"><path fill="#383F3D" d="M59.403 20.084c-.56 1.982-1.6 3.463-3.122 4.444C54.76 25.51 52.909 26 50.727 26c-2.001 0-3.733-.401-5.194-1.204-1.46-.803-2.582-1.962-3.362-3.478C41.39 19.8 41 17.993 41 15.892c0-2.081.39-3.885 1.17-5.41.781-1.527 1.902-2.691 3.363-3.494 1.461-.803 3.183-1.204 5.164-1.204 2.162 0 3.993.45 5.494 1.352 1.501.902 2.492 2.255 2.972 4.059l-4.533 1.813c-.28-1.19-.71-2.022-1.291-2.497-.58-.476-1.401-.714-2.462-.714-1.461 0-2.592.52-3.392 1.561-.8 1.04-1.201 2.552-1.201 4.534 0 1.982.385 3.493 1.156 4.534.77 1.04 1.886 1.56 3.347 1.56 1.1 0 1.971-.257 2.612-.772.64-.516 1.08-1.328 1.32-2.438l4.684 1.308zm18.023 2.735c.38 0 .69-.04.93-.119l-.39 2.824c-.58.317-1.26.476-2.04.476-2.163 0-3.453-.763-3.874-2.29-.9 1.527-2.682 2.29-5.344 2.29-1.5 0-2.651-.317-3.452-.951-.8-.635-1.2-1.556-1.2-2.765 0-1.269.454-2.294 1.365-3.077.91-.783 2.407-1.383 4.488-1.799l3.393-.654v-.535c0-.674-.19-1.21-.57-1.605-.38-.397-.901-.595-1.562-.595-.76 0-1.38.178-1.861.535-.48.357-.79.941-.93 1.754l-4.144-1.19c.26-1.446.98-2.57 2.162-3.373 1.18-.803 2.772-1.204 4.773-1.204 2.342 0 4.123.475 5.344 1.427 1.22.95 1.831 2.378 1.831 4.28v5.411c0 .773.36 1.16 1.081 1.16zm-8.856-.09c.7 0 1.33-.193 1.891-.579.56-.386.84-.897.84-1.531V19.34l-2.431.564c-.64.159-1.096.352-1.366.58-.27.228-.405.55-.405.966 0 .417.13.734.39.952.26.218.62.327 1.08.327zm22.646-12.188c1.581 0 2.842.455 3.783 1.367.94.912 1.41 2.21 1.41 3.895v9.9h-5.103V17.2c0-1.01-.185-1.73-.555-2.155-.37-.427-.896-.64-1.576-.64-.801 0-1.451.283-1.952.848-.5.565-.75 1.432-.75 2.601v7.849h-5.104V10.838h4.563l.15 2.854c.48-1.05 1.161-1.838 2.042-2.364.88-.525 1.911-.787 3.092-.787zm19.614 0c1.581 0 2.842.455 3.783 1.367.94.912 1.41 2.21 1.41 3.895v9.9h-5.103V17.2c0-1.01-.185-1.73-.555-2.155-.37-.427-.896-.64-1.576-.64-.8 0-1.451.283-1.952.848-.5.565-.75 1.432-.75 2.601v7.849h-5.104V10.838h4.563l.15 2.854c.48-1.05 1.161-1.838 2.042-2.364.88-.525 1.911-.787 3.092-.787zm24.268 12.278c.38 0 .69-.04.93-.119l-.39 2.824c-.58.317-1.261.476-2.042.476-2.161 0-3.452-.763-3.872-2.29-.901 1.527-2.682 2.29-5.344 2.29-1.501 0-2.652-.317-3.453-.951-.8-.635-1.2-1.556-1.2-2.765 0-1.269.455-2.294 1.365-3.077.911-.783 2.407-1.383 4.489-1.799l3.392-.654v-.535c0-.674-.19-1.21-.57-1.605-.38-.397-.9-.595-1.561-.595-.761 0-1.381.178-1.862.535-.48.357-.79.941-.93 1.754l-4.143-1.19c.26-1.446.98-2.57 2.161-3.373 1.181-.803 2.772-1.204 4.774-1.204 2.341 0 4.123.475 5.343 1.427 1.221.95 1.832 2.378 1.832 4.28v5.411c0 .773.36 1.16 1.08 1.16zm-8.857-.09c.7 0 1.331-.193 1.892-.579.56-.386.84-.897.84-1.531V19.34l-2.432.564c-.64.159-1.095.352-1.366.58-.27.228-.405.55-.405.966 0 .417.13.734.39.952.26.218.62.327 1.081.327zm20.665-16.648c2.061 0 3.698.51 4.909 1.531 1.21 1.02 1.816 2.423 1.816 4.207 0 1.784-.606 3.19-1.816 4.222-1.211 1.03-2.848 1.545-4.909 1.545h-5.074v8.117h-1.5V6.08h6.574zm-.18 10.108c1.721 0 3.037-.376 3.948-1.13.91-.753 1.366-1.833 1.366-3.24 0-1.387-.456-2.463-1.366-3.226-.911-.763-2.227-1.144-3.948-1.144h-4.894v8.74h4.894zm13.16 5.916c0 .912.144 1.556.435 1.933.29.376.775.565 1.456.565a5 5 0 001.02-.09c.28-.059.6-.168.961-.327l-.21 1.428c-.56.257-1.22.386-1.981.386-1.081 0-1.882-.302-2.402-.907-.52-.604-.78-1.55-.78-2.839V4h1.5v18.105zm19.914 2.617c.5 0 .89-.07 1.17-.208l-.09 1.189c-.36.198-.85.297-1.47.297-.701 0-1.272-.188-1.712-.565-.44-.376-.69-1.03-.75-1.962-.46.793-1.201 1.412-2.222 1.858a7.939 7.939 0 01-3.212.669c-1.481 0-2.667-.327-3.558-.981-.89-.654-1.336-1.586-1.336-2.795 0-2.299 1.901-3.785 5.704-4.46l4.594-.802v-1.308c0-1.19-.356-2.12-1.066-2.795-.71-.673-1.716-1.01-3.017-1.01-2.382 0-3.983 1.05-4.804 3.151l-1.14-.832c.44-1.17 1.17-2.067 2.19-2.691 1.022-.624 2.273-.936 3.754-.936 1.74 0 3.107.42 4.098 1.263.99.842 1.486 2.066 1.486 3.672v7.67c0 1.05.46 1.576 1.38 1.576zm-8.136-.03c.84 0 1.66-.144 2.462-.431.8-.288 1.466-.714 1.996-1.279.53-.564.796-1.243.796-2.036V18.18l-4.113.743c-1.622.298-2.802.714-3.543 1.249-.74.535-1.11 1.219-1.11 2.051 0 .793.31 1.403.93 1.829.62.426 1.481.639 2.582.639zm20.394-14.151c1.722 0 3.108.475 4.158 1.427 1.051.95 1.576 2.318 1.576 4.102v9.633h-1.5v-9.157c0-1.586-.39-2.765-1.171-3.538-.781-.773-1.852-1.16-3.213-1.16-.96 0-1.851.219-2.672.655a4.947 4.947 0 00-1.966 1.902c-.49.833-.736 1.804-.736 2.914v8.384h-1.5V10.838h1.35l.06 3.003c.48-1.07 1.216-1.888 2.207-2.453.99-.565 2.126-.847 3.407-.847zm18.954 0c1.721 0 3.107.475 4.158 1.427 1.05.95 1.576 2.318 1.576 4.102v9.633h-1.501v-9.157c0-1.586-.39-2.765-1.17-3.538-.781-.773-1.852-1.16-3.213-1.16-.96 0-1.851.219-2.672.655a4.947 4.947 0 00-1.966 1.902c-.49.833-.736 1.804-.736 2.914v8.384h-1.501V10.838h1.35l.061 3.003c.48-1.07 1.216-1.888 2.207-2.453.99-.565 2.126-.847 3.407-.847zm24.418 7.373c0 .336-.02.663-.06.98h-11.92c.101 1.824.646 3.246 1.637 4.267.99 1.02 2.317 1.53 3.978 1.53 1.18 0 2.197-.237 3.047-.713a4.18 4.18 0 001.846-2.021l1.261.654a5.912 5.912 0 01-2.401 2.512c-1.041.585-2.292.877-3.753.877-2.222 0-3.958-.684-5.209-2.051-1.25-1.368-1.876-3.26-1.876-5.679 0-2.418.605-4.31 1.816-5.678 1.211-1.368 2.907-2.051 5.089-2.051 2.041 0 3.642.673 4.803 2.021 1.161 1.348 1.742 3.132 1.742 5.352zm-6.545-6.065c-1.621 0-2.902.5-3.843 1.501-.94 1-1.471 2.403-1.591 4.207h10.567c-.1-1.784-.595-3.181-1.486-4.192-.89-1.011-2.106-1.516-3.647-1.516zm18.143-1.308c.8 0 1.43.168 1.891.505l-.39 1.397c-.46-.357-1.1-.535-1.921-.535-.761 0-1.477.233-2.147.699-.67.466-1.21 1.12-1.621 1.962-.41.842-.616 1.779-.616 2.81v8.324h-1.5V10.838h1.26l.18 3.032c.42-1.05 1.046-1.868 1.877-2.452.83-.585 1.826-.877 2.987-.877zM257.966 26c-1.521 0-2.842-.297-3.963-.892-1.121-.594-1.892-1.457-2.312-2.586l1.231-.803c.3.99.91 1.734 1.831 2.23.921.495 2.052.743 3.393.743 1.36 0 2.427-.258 3.197-.773s1.156-1.2 1.156-2.051c0-.734-.33-1.318-.99-1.754-.661-.437-1.822-.803-3.483-1.1-2.102-.377-3.583-.882-4.443-1.517-.861-.634-1.291-1.536-1.291-2.705 0-.773.24-1.487.72-2.14.48-.655 1.16-1.17 2.042-1.547.88-.376 1.88-.564 3.002-.564 1.58 0 2.847.297 3.797.891.951.595 1.607 1.507 1.967 2.736l-1.291.743c-.56-2.042-2.052-3.062-4.473-3.062-.8 0-1.526.128-2.177.386-.65.258-1.16.6-1.53 1.026-.371.426-.556.887-.556 1.382 0 .813.34 1.447 1.02 1.903.68.456 1.882.832 3.603 1.13 2.041.337 3.482.822 4.323 1.456.84.635 1.261 1.527 1.261 2.676 0 1.269-.545 2.284-1.636 3.047-1.091.763-2.557 1.145-4.398 1.145z"/><use fill="#FF5740" xlink:href="#a"/><path fill="#FFF" fill-rule="nonzero" mask="url(#logo-b)" d="M18.561 16.787l5.366-1.369-5.407-1.195 2.038-3.953-3.881 2.169-1.37-5.366-1.195 5.407-4.052-2.155 2.268 3.998-5.366 1.37 5.408 1.195-2.064 3.941 3.907-2.157 1.369 5.365 1.195-5.407 3.968 2.109z"/></g></svg>